<svg aria-hidden="true" style="position: absolute; width: 0; height: 0; overflow: hidden;" version="1.1" xmlns="http://www.w3.org/2000/svg" xmlns:xlink="http://www.w3.org/1999/xlink">
<defs>
<symbol id="icon-calendar_today" viewBox="0 0 32 32">
<path fill="#fff" style="fill: var(--color1, #fff)" d="M26.666 4h-1.333v-2.667h-2.667v2.667h-13.333v-2.667h-2.667v2.667h-1.333c-1.467 0-2.667 1.2-2.667 2.667v21.333c0 1.467 1.2 2.667 2.667 2.667h21.333c1.467 0 2.667-1.2 2.667-2.667v-21.333c0-1.467-1.2-2.667-2.667-2.667zM26.666 28h-21.333v-17.333h21.333v17.333z"></path>
</symbol>
<symbol id="icon-gg_time" viewBox="0 0 32 32">
<path fill="#fff" style="fill: var(--color1, #fff)" d="M26.234 5.765c-5.656-5.656-14.811-5.657-20.468 0s-5.657 14.811 0 20.468c5.656 5.656 14.811 5.657 20.468 0s5.657-14.811 0-20.468zM25.629 24.17c-0.676-0.605-1.4-1.14-2.162-1.601 0.504-1.741 0.803-3.656 0.873-5.648h4.255c-0.192 2.684-1.224 5.202-2.966 7.248zM3.405 16.921h4.255c0.071 1.991 0.369 3.907 0.873 5.648-0.762 0.461-1.486 0.996-2.162 1.601-1.742-2.047-2.774-4.565-2.966-7.248zM6.371 7.828c0.676 0.605 1.4 1.14 2.162 1.601-0.504 1.741-0.803 3.656-0.873 5.648h-4.255c0.192-2.684 1.224-5.202 2.966-7.249zM15.078 9.62c-1.504-0.108-2.954-0.478-4.299-1.089 0.782-2.014 2.224-4.429 4.299-5.027v6.117zM15.078 11.468v3.609h-5.572c0.064-1.684 0.303-3.302 0.699-4.782 1.528 0.668 3.171 1.067 4.873 1.173zM15.078 16.921v3.609c-1.702 0.106-3.345 0.505-4.873 1.173-0.397-1.48-0.636-3.097-0.699-4.782h5.572zM15.078 22.378v6.117c-2.075-0.599-3.517-3.013-4.299-5.027 1.345-0.611 2.795-0.982 4.299-1.089zM16.922 22.378c1.504 0.108 2.955 0.478 4.299 1.089-0.782 2.014-2.224 4.429-4.299 5.027v-6.117zM16.922 20.53v-3.609h5.573c-0.064 1.684-0.302 3.302-0.699 4.782-1.528-0.668-3.171-1.067-4.873-1.173zM16.922 15.077v-3.609c1.702-0.106 3.345-0.505 4.873-1.173 0.397 1.48 0.636 3.097 0.699 4.782h-5.573zM16.922 9.62v-6.117c2.076 0.599 3.517 3.014 4.299 5.027-1.345 0.611-2.795 0.982-4.299 1.089zM21.065 4.424c1.18 0.517 2.282 1.218 3.269 2.088-0.47 0.414-0.966 0.79-1.484 1.126-0.46-1.139-1.047-2.245-1.786-3.214zM9.15 7.638c-0.518-0.336-1.014-0.712-1.484-1.126 0.987-0.87 2.089-1.571 3.269-2.088-0.738 0.969-1.326 2.075-1.786 3.214zM9.15 24.36c0.46 1.139 1.047 2.245 1.786 3.214-1.181-0.517-2.282-1.218-3.269-2.088 0.47-0.414 0.966-0.79 1.484-1.126zM22.851 24.36c0.518 0.336 1.014 0.712 1.484 1.126-0.987 0.87-2.089 1.571-3.269 2.088 0.738-0.969 1.326-2.075 1.786-3.214zM24.34 15.077c-0.071-1.991-0.369-3.907-0.873-5.648 0.762-0.461 1.486-0.996 2.162-1.601 1.742 2.047 2.774 4.565 2.966 7.249h-4.255z"></path>
</symbol>
<symbol id="icon-logo" viewBox="0 0 104 32">
<path fill="#000" style="fill: var(--color2, #000)" d="M22.138 15.371c-0.104-0.080-0.214-0.16-0.324-0.24s-0.22-0.16-0.324-0.24c-0.185-1.144-0.625-2.196-1.272-3.111 0 0.412-0.046 1.144-0.162 2.104-0.010 0.069-0.020 0.141-0.030 0.214-0.037 0.265-0.077 0.551-0.132 0.838-0.139 0.755-0.324 1.578-0.578 2.47l-0 0v0c-0.069 0.251-0.139 0.503-0.231 0.754v-0.618c0.023-0.526 0.023-1.052 0.023-1.578s0-1.052-0.023-1.555c0-0.389-0.023-0.801-0.046-1.189-0.046-1.006-0.139-1.967-0.231-2.905 0 0-0.023-0.206-0.046-0.297l-0.069-0.48 1.504-0.503c0.463 0.823 1.319 1.418 2.313 1.51 0.046 0 0.098 0.006 0.15 0.011s0.104 0.011 0.15 0.011c1.434 0 2.637-0.984 2.938-2.31 0.046-0.206 0.069-0.435 0.069-0.663 0-0.206-0.023-0.412-0.069-0.595-0.208-1.029-0.972-1.876-1.989-2.219-0.301-0.091-0.625-0.16-0.972-0.16-1.666 0-3.007 1.327-3.007 2.974 0 0.183 0.023 0.366 0.046 0.549-0.303 0.1-0.606 0.212-0.918 0.327l-0 0c-0.117 0.043-0.234 0.087-0.354 0.13-0.81-5.101-2.452-8.6-4.326-8.6s-3.516 3.477-4.326 8.578c-4.858-1.853-8.721-2.196-9.669-0.595s1.272 4.735 5.344 8.006c-4.071 3.248-6.292 6.359-5.367 7.983 0.948 1.624 4.812 1.281 9.693-0.572 0.81 5.101 2.452 8.6 4.326 8.6s3.516-3.477 4.326-8.578c4.858 1.853 8.721 2.196 9.669 0.595 0.995-1.647-1.249-4.781-5.297-8.029 4.071-3.248 6.292-6.359 5.367-7.983-0.324-0.549-0.972-0.869-1.874-0.984 0.046 0.229 0.093 0.457 0.093 0.709 0 0.274-0.046 0.549-0.116 0.801 0.162 0.091 0.278 0.206 0.347 0.366 0.717 1.258-1.18 3.774-4.603 6.473zM5.691 16.080c-0.046-0.023-0.093-0.069-0.116-0.091 0.046 0.023 0.093 0.069 0.116 0.091zM14.204 15.577l0.162-1.533h0.37c0.185 0 0.324 0.023 0.416 0.091 0.069 0.046 0.139 0.137 0.139 0.252v0.137c0 0.043-0.005 0.086-0.011 0.132-0.006 0.051-0.013 0.105-0.013 0.165-0.023 0.297-0.092 0.48-0.185 0.595s-0.278 0.16-0.532 0.16h-0.347zM21.814 6.862c0.023-0.206 0.046-0.366 0.116-0.526 0.046-0.137 0.116-0.274 0.208-0.389s0.208-0.183 0.37-0.252c0.139-0.046 0.324-0.091 0.532-0.091 0.185 0 0.347 0.023 0.486 0.069s0.231 0.114 0.301 0.229c0.069 0.091 0.116 0.206 0.139 0.32 0.023 0.069 0.023 0.137 0.023 0.229v0.206l-0.046 0.32h-0.74l0.046-0.343v-0.343c0-0.023 0-0.046-0.023-0.069 0-0.011-0.006-0.017-0.012-0.023s-0.012-0.011-0.012-0.023l-0.046-0.046c-0.012 0-0.023-0.006-0.035-0.011s-0.023-0.011-0.035-0.011h-0.093c-0.046 0-0.093 0-0.139 0.023-0.010 0.005-0.019 0.009-0.027 0.012-0.029 0.013-0.047 0.020-0.065 0.056-0.023 0.023-0.046 0.046-0.069 0.092-0.013 0.013-0.019 0.033-0.025 0.056-0.005 0.018-0.011 0.038-0.021 0.058-0.023 0.046-0.023 0.091-0.023 0.137 0 0.023-0.006 0.046-0.012 0.069s-0.012 0.046-0.012 0.069l-0.162 1.624v0.183c0 0.091 0.023 0.183 0.046 0.229 0.046 0.091 0.116 0.137 0.254 0.137 0.046 0 0.093 0 0.139-0.023 0.010-0.005 0.019-0.009 0.027-0.012l0-0c0.029-0.013 0.047-0.020 0.065-0.056 0.023-0.023 0.046-0.046 0.069-0.092 0.013-0.013 0.019-0.033 0.025-0.056 0.005-0.018 0.011-0.038 0.021-0.058 0-0.027 0.008-0.054 0.015-0.076 0.005-0.016 0.009-0.029 0.009-0.039 0-0.023 0-0.091 0.023-0.137l0.046-0.343h0.717l-0.023 0.297c-0.023 0.16-0.046 0.32-0.093 0.457s-0.116 0.252-0.208 0.343c-0.093 0.114-0.208 0.183-0.347 0.229s-0.324 0.091-0.509 0.091c-0.162 0-0.301-0.023-0.416-0.069s-0.208-0.091-0.301-0.16c-0.069-0.069-0.139-0.16-0.162-0.252-0.046-0.091-0.069-0.206-0.069-0.343v-0.114c-0.093-0.069-0.093-0.16-0.093-0.274l0.139-1.304zM1.828 8.829c0.74-1.235 3.886-0.892 7.981 0.686-0.046 0.274-0.069 0.526-0.092 0.801-0.879 0.709-1.596 1.601-2.082 2.63 0.37-0.206 1.018-0.526 1.92-0.892 0.191-0.087 0.402-0.165 0.619-0.246l0-0c0.124-0.046 0.25-0.093 0.376-0.143 0.717-0.252 1.55-0.526 2.452-0.755 0.127-0.034 0.254-0.063 0.382-0.091s0.254-0.057 0.382-0.091c0 0 0.162-0.091 0.509-0.252-0.347 0.183-0.694 0.366-1.064 0.549-0.073 0.036-0.145 0.075-0.219 0.115l-0 0c-0.114 0.062-0.232 0.126-0.359 0.182-0.046 0.023-0.092 0.046-0.162 0.091-0.116 0.057-0.226 0.12-0.335 0.183l-0 0c-0.11 0.063-0.22 0.126-0.335 0.183-0.179 0.106-0.359 0.209-0.537 0.312-0.281 0.161-0.559 0.321-0.828 0.489-0.092 0.046-0.162 0.091-0.254 0.16l-0.208 0.137-0.555 0.343c-0.763 0.48-1.596 1.052-2.406 1.647-0.162 0.114-0.324 0.229-0.463 0.343-0.012 0-0.017 0.006-0.023 0.011s-0.012 0.011-0.023 0.011c-0.023 0.023-0.046 0.040-0.069 0.057s-0.046 0.034-0.069 0.057c-3.377-2.722-5.274-5.261-4.534-6.519zM16.332 14.525c0 0.091 0 0.206-0.023 0.32-0.023 0.274-0.093 0.526-0.185 0.709-0.093 0.206-0.208 0.343-0.37 0.458s-0.324 0.206-0.509 0.252c-0.185 0.046-0.393 0.069-0.625 0.069h-0.509l-0.254 2.379h-1.11l0.578-5.444h1.689c0.902 0 1.319 0.412 1.319 1.258zM9.438 14.376c-0.006 0.006-0.012 0.011-0.023 0.011-0.023 0.023-0.046 0.046-0.092 0.069 0.023-0.023 0.046-0.046 0.092-0.069 0 0 0.023-0.023 0.046-0.023-0.012 0-0.017 0.006-0.023 0.011zM14.273 30.193c-1.457 0-2.73-2.905-3.401-7.182 0.116-0.046 0.237-0.097 0.359-0.149l0-0c0.121-0.051 0.243-0.103 0.358-0.149 0.833 0.32 1.735 0.503 2.683 0.503 0.231 0 0.463 0 0.694-0.023-0.37-0.229-0.995-0.618-1.758-1.189-0.11-0.089-0.228-0.177-0.351-0.27l-0-0-0-0c-0.162-0.122-0.334-0.25-0.504-0.393-0.578-0.48-1.226-1.052-1.874-1.716-0.185-0.183-0.37-0.366-0.532-0.572 0 0 0.185 0.114 0.532 0.32 0.023 0.011 0.040 0.023 0.058 0.034s0.035 0.023 0.058 0.034c0.241 0.154 0.491 0.3 0.745 0.448l0 0c0.159 0.093 0.32 0.187 0.481 0.284 0.463 0.274 0.925 0.526 1.388 0.755 0.174 0.091 0.353 0.183 0.532 0.274s0.358 0.183 0.532 0.274c0.532 0.274 1.064 0.526 1.596 0.778l0 0c0.173 0.080 0.353 0.16 0.532 0.24l0 0c0.179 0.080 0.358 0.16 0.532 0.24 0.065 0.026 0.131 0.051 0.199 0.077 0.174 0.067 0.358 0.138 0.541 0.22-0.671 4.277-1.943 7.159-3.401 7.159zM11.59 22.713c-0.091-0.035-0.177-0.071-0.262-0.109 0.087 0.037 0.174 0.073 0.262 0.109zM11.328 22.604c-0.19-0.082-0.381-0.17-0.571-0.28 0.056 0.028 0.111 0.055 0.165 0.083 0.135 0.068 0.267 0.134 0.406 0.197zM10.236 22.221l-0 0c-0.156 0.063-0.303 0.123-0.451 0.172-4.095 1.555-7.264 1.921-8.004 0.663-0.717-1.258 1.18-3.774 4.603-6.473 0.104 0.080 0.214 0.16 0.324 0.24s0.22 0.16 0.324 0.24c0.278 1.83 1.249 3.454 2.66 4.552 0.231 0.183 0.486 0.366 0.74 0.526-0.067 0.027-0.133 0.053-0.197 0.079l-0 0zM17.72 9.287c-0.017-0.114-0.035-0.229-0.046-0.343-0.116 0.046-0.237 0.097-0.359 0.149s-0.243 0.103-0.359 0.149c-0.833-0.32-1.735-0.503-2.683-0.503-0.925 0-1.828 0.183-2.637 0.48-0.301 0.114-0.578 0.252-0.856 0.389 0.023-0.252 0.069-0.48 0.116-0.709 0.671-4.277 1.943-7.159 3.401-7.159s2.73 2.905 3.401 7.182v0c0.023 0.229 0.046 0.457 0.069 0.709 0.023 0.046 0.023 0.092 0.023 0.16 0-0.038-0.007-0.069-0.013-0.096-0.005-0.023-0.010-0.043-0.010-0.064-0.012-0.114-0.029-0.229-0.046-0.343l-0-0zM26.718 23.102c-0.74 1.235-3.886 0.892-7.981-0.686 0.046-0.274 0.069-0.526 0.093-0.801 1.388-1.098 2.36-2.699 2.66-4.529 0.046-0.297 0.069-0.618 0.093-0.938 0.13 0.113 0.272 0.214 0.409 0.312h0c0.058 0.041 0.114 0.082 0.169 0.122 3.401 2.745 5.297 5.261 4.557 6.519z"></path>
<path fill="#fff" style="fill: var(--color1, #fff)" d="M43.232 24.303h-3.238l-0.572 1.5h-2.922l3.725-8.607h2.824l3.725 8.607h-2.97l-0.572-1.5zM42.441 22.213l-0.828-2.164-0.828 2.164h1.656zM49.087 25.428c-0.722-0.381-1.288-0.914-1.698-1.598s-0.615-1.461-0.615-2.33 0.205-1.645 0.615-2.33c0.41-0.684 0.976-1.217 1.698-1.598s1.534-0.572 2.435-0.572c0.828 0 1.566 0.148 2.215 0.443s1.185 0.721 1.607 1.279l-1.814 1.635c-0.528-0.672-1.148-1.008-1.862-1.008-0.6 0-1.083 0.195-1.449 0.584s-0.548 0.912-0.548 1.568 0.183 1.178 0.548 1.568c0.365 0.389 0.848 0.584 1.449 0.584 0.714 0 1.335-0.336 1.862-1.008l1.814 1.635c-0.422 0.557-0.958 0.984-1.607 1.279s-1.388 0.443-2.215 0.443c-0.901 0-1.712-0.191-2.435-0.572zM61.857 24.303h-3.238l-0.573 1.5h-2.921l3.725-8.607h2.825l3.725 8.607h-2.97l-0.572-1.5zM61.065 22.213l-0.827-2.164-0.828 2.164h1.655zM65.862 17.197h4.199c0.95 0 1.787 0.174 2.514 0.523s1.29 0.846 1.692 1.494c0.402 0.648 0.603 1.41 0.603 2.287s-0.201 1.639-0.603 2.287c-0.402 0.648-0.966 1.146-1.692 1.494s-1.564 0.523-2.514 0.523h-4.199v-8.607zM69.939 23.541c0.617 0 1.11-0.178 1.479-0.535s0.554-0.859 0.554-1.506-0.185-1.15-0.554-1.506c-0.37-0.357-0.862-0.535-1.479-0.535h-1.205v4.082h1.205zM83.001 23.615v2.189h-7.085v-8.607h6.926v2.189h-4.102v1.008h3.603v2.090h-3.603v1.131h4.261zM91.717 25.803l-0.024-3.922-1.85 3.148h-1.266l-1.85-3.012v3.787h-2.617v-8.607h2.362l2.775 4.586 2.702-4.586h2.362l0.024 8.607h-2.617zM100.786 22.68v3.123h-2.873v-3.16l-3.214-5.447h3.031l1.741 2.975 1.753-2.975h2.775l-3.214 5.484z"></path>
<path fill="#fff" style="fill: var(--color1, #fff)" d="M41.125 6.688c0.496 0.419 0.745 0.996 0.745 1.73s-0.248 1.309-0.745 1.725c-0.496 0.416-1.182 0.624-2.058 0.624h-1.842v2.173h-0.725v-6.882h2.568c0.876 0 1.561 0.21 2.058 0.629zM40.606 9.682c0.359-0.298 0.539-0.719 0.539-1.263 0-0.557-0.18-0.985-0.539-1.283s-0.879-0.447-1.558-0.447h-1.823v3.441h1.823c0.679 0 1.199-0.149 1.558-0.447zM44.688 12.543c-0.552-0.305-0.983-0.723-1.294-1.254s-0.465-1.127-0.465-1.789c0-0.662 0.155-1.258 0.465-1.789s0.742-0.949 1.294-1.254c0.552-0.305 1.168-0.457 1.847-0.457s1.292 0.151 1.837 0.452c0.545 0.302 0.975 0.719 1.289 1.254s0.47 1.132 0.47 1.794c0 0.662-0.157 1.26-0.47 1.794s-0.743 0.952-1.289 1.254c-0.546 0.302-1.158 0.452-1.837 0.452s-1.295-0.152-1.847-0.457zM48.005 11.982c0.438-0.246 0.781-0.587 1.029-1.022s0.372-0.923 0.372-1.46-0.124-1.024-0.372-1.46c-0.248-0.436-0.591-0.777-1.029-1.022s-0.928-0.369-1.47-0.369c-0.542 0-1.034 0.123-1.475 0.369s-0.787 0.587-1.039 1.022c-0.252 0.436-0.377 0.923-0.377 1.46s0.126 1.024 0.377 1.46c0.252 0.436 0.598 0.777 1.039 1.022s0.933 0.369 1.475 0.369c0.542 0 1.032-0.123 1.47-0.369zM60.97 6.059l-2.313 6.882h-0.765l-2.009-5.869-2.019 5.869h-0.755l-2.313-6.882h0.745l1.98 5.919 2.048-5.919h0.676l2.019 5.948 2.009-5.948h0.696zM67.143 12.312v0.629h-4.851v-6.882h4.704v0.629h-3.979v2.448h3.547v0.619h-3.547v2.556h4.126zM73.533 12.941l-1.568-2.212c-0.177 0.020-0.359 0.030-0.549 0.030h-1.842v2.183h-0.725v-6.882h2.567c0.875 0 1.562 0.21 2.058 0.629s0.745 0.996 0.745 1.73c0 0.537-0.135 0.991-0.407 1.362s-0.658 0.637-1.161 0.801l1.676 2.36h-0.794zM72.955 9.687c0.359-0.302 0.539-0.724 0.539-1.268 0-0.557-0.179-0.985-0.539-1.283s-0.879-0.447-1.558-0.447h-1.823v3.451h1.823c0.679 0 1.199-0.151 1.558-0.452zM77.075 12.548c-0.546-0.302-0.973-0.719-1.284-1.254s-0.465-1.132-0.465-1.794 0.155-1.26 0.465-1.794c0.311-0.534 0.74-0.952 1.289-1.254s1.163-0.452 1.842-0.452c0.509 0 0.98 0.085 1.411 0.256s0.797 0.42 1.098 0.747l-0.461 0.462c-0.536-0.544-1.212-0.816-2.029-0.816-0.542 0-1.035 0.125-1.48 0.374s-0.792 0.59-1.043 1.022c-0.251 0.433-0.377 0.918-0.377 1.455s0.126 1.022 0.377 1.455c0.251 0.433 0.599 0.773 1.043 1.022s0.938 0.374 1.48 0.374c0.823 0 1.499-0.275 2.029-0.826l0.461 0.462c-0.301 0.328-0.668 0.578-1.102 0.752s-0.907 0.261-1.416 0.261c-0.679 0-1.292-0.151-1.838-0.452zM83.984 12.543c-0.552-0.305-0.983-0.723-1.293-1.254s-0.466-1.127-0.466-1.789c0-0.662 0.155-1.258 0.466-1.789s0.741-0.949 1.293-1.254c0.552-0.305 1.168-0.457 1.847-0.457s1.292 0.151 1.838 0.452c0.545 0.302 0.975 0.719 1.289 1.254s0.47 1.132 0.47 1.794-0.157 1.26-0.47 1.794c-0.314 0.534-0.743 0.952-1.289 1.254s-1.158 0.452-1.838 0.452-1.295-0.152-1.847-0.457zM87.301 11.982c0.438-0.246 0.781-0.587 1.029-1.022s0.373-0.923 0.373-1.46-0.124-1.024-0.373-1.46c-0.248-0.436-0.591-0.777-1.029-1.022s-0.927-0.369-1.47-0.369-1.034 0.123-1.475 0.369c-0.441 0.246-0.787 0.587-1.039 1.022s-0.377 0.923-0.377 1.46 0.126 1.024 0.377 1.46c0.251 0.436 0.598 0.777 1.039 1.022s0.933 0.369 1.475 0.369 1.032-0.123 1.47-0.369zM91.055 6.059h2.793c0.725 0 1.366 0.146 1.921 0.438s0.986 0.698 1.293 1.219c0.307 0.521 0.461 1.116 0.461 1.784s-0.153 1.263-0.461 1.784c-0.307 0.521-0.738 0.927-1.293 1.219s-1.196 0.438-1.921 0.438h-2.793v-6.882zM93.809 12.312c0.601 0 1.127-0.12 1.578-0.359s0.8-0.57 1.049-0.993c0.248-0.423 0.372-0.909 0.372-1.46s-0.124-1.037-0.372-1.46c-0.249-0.423-0.598-0.754-1.049-0.993s-0.977-0.359-1.578-0.359h-2.029v5.624h2.029zM104 12.312v0.629h-4.851v-6.882h4.704v0.629h-3.979v2.448h3.547v0.619h-3.547v2.556h4.126z"></path>
</symbol>
<symbol id="icon-VSCode" viewBox="0 0 32 32">
<path d="M0 8.623l22.992-8.623 8.623 22.992-22.992 8.623-8.623-22.992z"></path>
</symbol>
<symbol id="icon-next" viewBox="0 0 32 32">
<path d="M0 6.716l24.865-6.716 6.716 24.865-24.865 6.716-6.716-24.865z"></path>
</symbol>
<symbol id="icon-javascript" viewBox="0 0 32 32">
<path d="M8.784 0.072l21.653 6.134-7.229 25.519-21.653-6.134 7.229-25.519z"></path>
</symbol>
<symbol id="icon-css" viewBox="0 0 32 32">
<path d="M2.424 7.214l17.44-6.928 9.8 24.672-17.44 6.928-9.8-24.672z"></path>
</symbol>
<symbol id="icon-html" viewBox="0 0 32 32">
<path d="M5.92 0.244l26.038 5.676-5.676 26.038-26.038-5.676 5.676-26.038z"></path>
</symbol>
<symbol id="icon-gg_time-1" viewBox="0 0 32 32">
<path fill="#fff" style="fill: var(--color1, #fff)" d="M12 9.333h2.667v6.667h6.667v2.667h-9.333v-9.333z"></path>
<path fill="#fff" style="fill: var(--color1, #fff)" d="M29.333 16c0-7.364-5.969-13.333-13.333-13.333s-13.333 5.969-13.333 13.333 5.969 13.333 13.333 13.333c7.364 0 13.333-5.969 13.333-13.333zM26.667 16c0 2.829-1.124 5.542-3.124 7.542s-4.713 3.124-7.542 3.124c-2.829 0-5.542-1.124-7.542-3.124s-3.124-4.713-3.124-7.542c0-2.829 1.124-5.542 3.124-7.542s4.713-3.124 7.542-3.124c2.829 0 5.542 1.124 7.542 3.124s3.124 4.713 3.124 7.542z"></path>
</symbol>
</defs>
</svg>
